<svg width="135" height="132" viewBox="0 0 135 132" fill="none" xmlns="http://www.w3.org/2000/svg">
<g id="layer1">
<g id="g1011">
<g id="g1017">
<path id="path842" opacity="0.1" d="M134.485 65.9985C134.485 102.181 104.495 131.515 67.5 131.515C30.507 131.515 0.515488 102.182 0.515488 65.9985C0.515488 29.8164 30.5055 0.482269 67.5 0.482269C104.493 0.482269 134.485 29.8164 134.485 65.9985Z" fill="white"/>
<path id="path842-9" d="M67.5 0.488289C30.507 0.488289 0.515488 29.8209 0.515488 66.0045C0.515488 74.3687 2.12193 82.3664 5.04316 89.7208H39.6144V53.841L67.831 32.6725L95.9905 53.804V89.7223H129.956C132.877 82.3673 134.484 74.369 134.484 66.006C134.484 29.8209 104.492 0.489773 67.4994 0.489773L67.5 0.488289ZM67.5 9.3819C99.4737 9.3819 125.392 34.7328 125.392 66.0045C125.392 72.0027 124.432 77.7755 122.664 83.1989H102.962V60.9648H117.435L67.4909 23.4812L47.7708 38.2855L47.4961 31.9118H39.6156L39.5398 44.4553L17.5558 60.9642H32.6443V83.1982H12.3368C10.569 77.7749 9.60894 72.0021 9.60894 66.0039C9.60894 34.7311 35.5268 9.3813 67.5005 9.3813L67.5 9.3819ZM67.6515 51.3212C61.8169 51.3212 55.9823 54.5389 55.9823 60.9651V80.2346H79.3208V60.9651C79.3208 54.538 73.4862 51.3185 67.6515 51.3185V51.3212ZM67.8031 57.2503C70.531 57.2877 73.2588 58.5671 73.2588 60.9651V74.3055H62.3473V60.9651C62.3473 58.4156 65.0752 57.212 67.8031 57.2476V57.2503ZM8.22628 96.5393C20.9906 118.871 43.6462 131.414 67.5 131.521C93.2211 131.521 115.55 117.342 126.774 96.5393H18.7377H8.22628Z" fill="black"/>
<path id="path961" d="M67.5 9.38181C99.4737 9.38181 125.392 34.7327 125.392 66.0045C125.392 72.0026 124.432 77.7754 122.664 83.1988H102.962V60.9647H117.435L67.4909 23.4811L47.7708 38.2854L47.4961 31.9117H39.6156L39.5398 44.4552L17.5558 60.9641H32.6443V83.1982H12.3368C10.569 77.7749 9.60894 72.002 9.60894 66.0039C9.60894 34.731 35.5268 9.38121 67.5005 9.38121L67.5 9.38181Z" fill="#38BDF8"/>
<path id="path985" d="M67.8031 57.2472C70.531 57.2846 73.2588 58.5641 73.2588 60.9621V74.3025H62.3473V60.9621C62.3473 58.4155 65.0752 57.2119 67.8031 57.2475V57.2472Z" fill="#38BDF8"/>
</g>
</g>
</g>
</svg>
